<svg xmlns="http://www.w3.org/2000/svg" width="116" height="40" fill="none"><g clip-path="url(#a)"><path d="M40.105 23.53c0-.585-.154-1.033-.43-1.36a3.117 3.117 0 0 0-1.083-.774 6.953 6.953 0 0 0-1.394-.447 13.07 13.07 0 0 1-1.41-.344c-.43-.137-.792-.292-1.067-.499-.292-.206-.43-.499-.43-.912 0-.24.052-.447.172-.619.103-.172.258-.327.465-.447.206-.12.43-.206.688-.275.258-.052.533-.086.825-.086.516 0 .98.12 1.394.326.413.207.688.517.825.912.07.241.155.379.224.448.069.068.155.086.275.086a.5.5 0 0 0 .241-.052.406.406 0 0 0 .155-.138c.034-.051.051-.103.069-.154 0-.035.017-.07.017-.104 0-.034-.035-.155-.086-.395-.069-.241-.206-.482-.413-.757-.224-.258-.55-.5-.98-.706-.448-.206-1.033-.326-1.772-.326-.706 0-1.256.103-1.669.31-.413.206-.74.464-.946.739-.224.275-.361.55-.43.826a2.577 2.577 0 0 0-.086.619c0 .378.069.705.24.98.173.276.362.5.585.654.173.138.345.241.534.31.172.086.395.172.636.24.241.07.516.155.843.224.327.086.723.19 1.17.31.138.034.292.086.499.155.206.069.395.155.585.275.172.12.327.275.464.447.138.19.207.413.207.688 0 .207-.052.413-.155.62-.103.206-.241.378-.43.533-.207.172-.447.292-.757.396-.31.103-.671.137-1.084.137-.155 0-.344 0-.568-.034a1.972 1.972 0 0 1-.67-.19 2.084 2.084 0 0 1-.671-.447 2.243 2.243 0 0 1-.55-.825c-.07-.138-.121-.276-.19-.396a.4.4 0 0 0-.344-.172.555.555 0 0 0-.361.137.433.433 0 0 0-.155.345c0 .258.086.55.258.86.172.31.395.585.67.825.104.104.224.19.362.276.138.103.31.172.516.24.206.07.43.138.705.172.258.052.568.07.93.07.79 0 1.41-.104 1.892-.31.481-.207.843-.465 1.083-.757.241-.293.413-.585.482-.895.069-.31.12-.55.12-.74ZM43.413 25.37V14.378c0-.103-.018-.207-.018-.31a.713.713 0 0 0-.051-.275.47.47 0 0 0-.155-.207.511.511 0 0 0-.31-.085.455.455 0 0 0-.292.085.47.47 0 0 0-.155.207c-.034.086-.069.172-.069.275V25.68c0 .103.035.19.07.275a.47.47 0 0 0 .154.207c.069.051.172.068.31.068.24 0 .395-.086.447-.275.034-.19.069-.378.069-.585ZM47.283 25.37v-7.586c0-.086-.017-.19-.017-.293a.656.656 0 0 0-.206-.499.492.492 0 0 0-.293-.085.511.511 0 0 0-.31.086.47.47 0 0 0-.154.206c-.035.086-.07.172-.07.275v8.206c0 .103.035.19.07.275a.47.47 0 0 0 .154.207c.07.051.172.068.31.068.24 0 .396-.086.447-.275.035-.19.07-.378.07-.585Zm.155-10.855a.651.651 0 0 0-.206-.481.697.697 0 0 0-.465-.19.647.647 0 0 0-.67.671c0 .19.05.345.188.482.12.138.276.19.482.19a.623.623 0 0 0 .465-.19.651.651 0 0 0 .206-.482ZM56.882 14.36v4.198c-.103-.138-.24-.292-.395-.482a3.41 3.41 0 0 0-.637-.55 3.719 3.719 0 0 0-.946-.43 4.428 4.428 0 0 0-1.342-.19c-.774 0-1.41.155-1.927.448a3.65 3.65 0 0 0-1.221 1.118c-.31.447-.533.946-.654 1.48a6.338 6.338 0 0 0-.189 1.548c0 .516.052 1.066.19 1.617.137.55.36 1.066.67 1.53.31.465.706.844 1.222 1.136.516.31 1.135.447 1.892.447a4.56 4.56 0 0 0 1.256-.154c.36-.104.67-.241.946-.413.275-.172.499-.344.67-.516.173-.172.328-.345.465-.482v.705c0 .103 0 .207.017.31 0 .103.035.19.07.275a.47.47 0 0 0 .154.207c.069.051.155.068.292.068.241 0 .396-.086.448-.275.034-.19.069-.378.069-.585V14.36c0-.085-.018-.189-.018-.292a.713.713 0 0 0-.051-.275.47.47 0 0 0-.155-.207.492.492 0 0 0-.293-.085.51.51 0 0 0-.31.085.47.47 0 0 0-.154.207c-.034.086-.069.172-.069.275v.293Zm-6.21 7.191c0-.619.069-1.152.24-1.634.156-.465.362-.86.637-1.187.276-.31.585-.55.947-.723.36-.154.74-.24 1.152-.24.31 0 .671.069 1.05.172.378.12.722.327 1.049.602.31.292.585.688.808 1.17.207.481.327 1.1.327 1.823 0 .482-.034.877-.103 1.204-.069.344-.138.62-.24.86a2.62 2.62 0 0 1-.328.585c-.137.155-.258.293-.361.396-.206.19-.396.327-.602.43-.206.103-.413.19-.602.24-.19.052-.361.087-.533.104-.172.017-.293.017-.396.017-.379 0-.757-.069-1.118-.223a2.651 2.651 0 0 1-.98-.706c-.293-.31-.517-.705-.689-1.187-.172-.481-.258-1.05-.258-1.703ZM61.329 21.689H67.539a.7.7 0 0 0 .31-.086c.085-.035.154-.12.206-.224a.948.948 0 0 0 .086-.43c0-.017-.017-.138-.017-.344a6.23 6.23 0 0 0-.138-.774 5.475 5.475 0 0 0-.344-.963 3.957 3.957 0 0 0-.67-.946 4.251 4.251 0 0 0-1.085-.723c-.447-.19-.98-.292-1.6-.292-.653 0-1.238.12-1.737.344a3.343 3.343 0 0 0-1.273.946c-.344.413-.62.894-.791 1.462a6.744 6.744 0 0 0-.258 1.91c0 .653.069 1.272.24 1.84.155.568.396 1.067.74 1.48.344.412.757.74 1.273.98.516.24 1.118.361 1.807.361.722 0 1.324-.12 1.806-.378.482-.241.86-.533 1.135-.843.275-.31.465-.62.568-.912.103-.292.172-.482.172-.55a.541.541 0 0 0-.138-.327.506.506 0 0 0-.378-.155c-.241 0-.413.138-.499.378-.19.465-.413.826-.654 1.084-.24.258-.499.447-.74.568a2.23 2.23 0 0 1-.722.24c-.224.035-.396.035-.516.035-.499 0-.929-.086-1.307-.275a2.352 2.352 0 0 1-.93-.757 3.503 3.503 0 0 1-.55-1.17 4.96 4.96 0 0 1-.206-1.48Zm5.711-.86h-5.694c.034-.258.103-.568.206-.93a3.07 3.07 0 0 1 .517-.997c.223-.31.515-.585.877-.809.344-.206.791-.326 1.307-.326.62 0 1.118.137 1.48.378.36.258.636.55.825.878.19.343.31.67.362 1.014.051.345.086.62.12.792ZM71.959 19.296c0-.286.142-.513.428-.672a2.16 2.16 0 0 1 1.016-.235c.714 0 1.252.26 1.605.764.353.512.756.764 1.2.764.295 0 .53-.084.698-.26a.913.913 0 0 0 .252-.655c0-.487-.336-.958-.991-1.411-.664-.454-1.554-.68-2.663-.68-1.218 0-2.133.268-2.738.806-.605.537-.907 1.159-.907 1.856 0 .622.243 1.16.747 1.613.496.453 1.285.798 2.378 1.05 1.091.252 1.755.478 1.999.688.243.21.37.454.37.74 0 .319-.152.58-.438.78-.285.202-.663.303-1.117.303-.42 0-.806-.075-1.167-.235-.37-.16-.698-.487-1-.983-.269-.445-.588-.672-.94-.672a.899.899 0 0 0-.664.269.87.87 0 0 0-.269.647c0 .588.32 1.15.966 1.671.647.53 1.613.79 2.89.79 1.26 0 2.234-.252 2.94-.773.697-.512 1.05-1.251 1.05-2.226 0-1.226-1.042-2.091-3.117-2.595-1.075-.26-1.764-.48-2.066-.647-.311-.168-.462-.395-.462-.697ZM87.774 20.447c0-1.218-.286-2.109-.849-2.68-.571-.571-1.31-.857-2.234-.857-1.1 0-2.033.462-2.797 1.386v-2.713c0-.571-.034-.983-.084-1.235a1.037 1.037 0 0 0-.37-.613 1.147 1.147 0 0 0-.722-.235c-.26 0-.487.076-.672.21a.872.872 0 0 0-.37.53c-.05.218-.075.595-.075 1.15v9.105c0 .706.1 1.176.302 1.403.202.227.479.336.832.336.36 0 .646-.11.848-.345.202-.235.31-.705.31-1.427v-2.655c0-.882.068-1.503.202-1.856.135-.353.362-.647.68-.89a1.89 1.89 0 0 1 1.143-.362c.487 0 .874.168 1.15.488.278.319.42.915.42 1.78v3.663c0 .621.093 1.041.295 1.268.193.227.47.336.823.336.773 0 1.168-.53 1.168-1.604v-4.183ZM95.953 24.94c.513.865 1 1.294 1.47 1.294.269 0 .504-.093.722-.277.21-.185.32-.395.32-.639 0-.218-.084-.546-.244-.966-.16-.42-.227-.957-.202-1.63l.05-2.15c.034-1.47-.268-2.444-.915-2.931-.655-.487-1.68-.73-3.074-.73-1.386 0-2.402.268-3.04.806-.647.537-.967 1.1-.967 1.688 0 .252.093.462.294.621.194.16.412.236.656.236.26 0 .462-.067.604-.21.135-.135.294-.37.48-.706.318-.58.999-.873 2.04-.873.546 0 .958.126 1.227.37.268.243.403.713.411 1.402a35.54 35.54 0 0 1-2.326.554c-.958.202-1.655.37-2.075.521-.429.151-.823.42-1.185.806-.36.387-.537.882-.537 1.504 0 .73.26 1.344.798 1.848.529.504 1.293.756 2.285.756 1.041 0 2.116-.429 3.208-1.294Zm-.151-3.318c0 .756-.05 1.328-.151 1.706-.101.386-.37.714-.807.99a2.554 2.554 0 0 1-1.402.412c-.48 0-.849-.126-1.11-.378-.26-.252-.385-.537-.385-.873 0-.387.16-.68.487-.882.327-.202.882-.378 1.671-.538.79-.15 1.353-.302 1.697-.437ZM100.479 24.336c0 .562.025.949.084 1.15.05.202.185.378.386.53a1.1 1.1 0 0 0 .681.218c.26 0 .495-.076.697-.244.201-.168.319-.352.369-.554.051-.202.076-.596.076-1.184v-1.328c0-1.579.134-2.654.403-3.208.269-.555.672-.832 1.227-.832.218 0 .487.05.806.151.319.101.546.143.672.143.218 0 .42-.084.613-.269a.943.943 0 0 0 .286-.697c0-.403-.244-.714-.714-.949-.471-.235-.933-.353-1.369-.353-.84 0-1.504.479-1.974 1.428-.017-.949-.387-1.428-1.109-1.428-.756 0-1.134.521-1.134 1.546v5.88ZM114.11 22.135c.773 0 1.277-.118 1.52-.361.244-.244.37-.58.37-1 0-.95-.37-1.831-1.101-2.646-.739-.806-1.78-1.218-3.124-1.218-1.411 0-2.52.437-3.31 1.294-.789.857-1.184 1.982-1.184 3.368 0 1.378.395 2.503 1.184 3.368.79.865 1.957 1.294 3.495 1.294 1.201 0 2.158-.277 2.864-.849.705-.57 1.058-1.108 1.058-1.629a.618.618 0 0 0-.227-.479.804.804 0 0 0-.529-.193.963.963 0 0 0-.445.1c-.134.068-.336.244-.605.522-.68.672-1.402 1.008-2.167 1.008-.621 0-1.159-.21-1.604-.647-.445-.437-.681-1.075-.697-1.932h4.502Zm-4.502-1.302c.176-1.562.873-2.344 2.091-2.344.571 0 1.059.202 1.453.605.387.403.597.983.63 1.739h-4.174Z" fill="#026C97"/><path fill-rule="evenodd" clip-rule="evenodd" d="M4.308 5.5H24.57a2.484 2.484 0 0 1 2.47 2.47v12.786h-1.075V7.974a1.409 1.409 0 0 0-1.4-1.4H4.286a1.408 1.408 0 0 0-1.447 1.4v12.782H1.763V7.97A2.484 2.484 0 0 1 4.308 5.5Z" fill="#026C97"/><path d="M18.622 20.552a3.397 3.397 0 0 0 3.515-3.28 3.409 3.409 0 0 0-3.515-3.225 3.408 3.408 0 0 0-3.516 3.28 3.408 3.408 0 0 0 3.516 3.225ZM27.535 19.068a15.257 15.257 0 0 1-10.59 2.796c-1.076 0-2.226-.119-2.226 1.601v.194c1.656 1.075 3.225 1.075 4.408-.774.763-1.172 1.796-.774 1.247.753a4.44 4.44 0 0 1-4.3 2.945 6.757 6.757 0 0 1-1.29-.14v4.764a2.87 2.87 0 0 0 3.042 3.107c3.408 0 5.204-3.14 5.204-6.451a12.667 12.667 0 0 0-.58-3.688 14.568 14.568 0 0 0 6.052-4.085c.527-.775-.096-1.635-.967-1.022Z" fill="#026C97"/><path fill-rule="evenodd" clip-rule="evenodd" d="M13.977 17.23a3.408 3.408 0 0 1-3.537 3.322 3.397 3.397 0 0 1-3.516-3.28 3.408 3.408 0 0 1 3.516-3.225 3.408 3.408 0 0 1 3.537 3.183Zm-2.462 4.634A15.568 15.568 0 0 1 1.15 19.068c-.87-.613-1.473.247-.903 1.01a14.44 14.44 0 0 0 6.043 4.086c-2.032 6.924 1.688 10.15 4.623 10.14a2.86 2.86 0 0 0 3.064-3.097v-5.494c.683.203 1.386.33 2.097.376a4.355 4.355 0 0 0 4.354-2.645c.591-1.42-.42-1.828-1.204-.742-1.516 2.086-3.462 1.656-5.473-.269-.548-.505-.85-.645-2.258-.57h.022Z" fill="#D8711C"/></g><defs><clipPath id="a"><path fill="#fff" transform="translate(0 5.5)" d="M0 0h116v29H0z"/></clipPath></defs></svg>