<svg class="scribdLogo" xmlns="http://www.w3.org/2000/svg" width="93" height="22"><g clip-path="url(#a)"><path fill="#1E7B85" d="M2.723 10.876a3.392 3.392 0 0 0 2.721 1.226 2.933 2.933 0 0 0 2.222-.86 2.83 2.83 0 0 0 .818-2.034A2.545 2.545 0 0 0 6.023 6.59a3.929 3.929 0 0 0-.732.091 2.86 2.86 0 0 1-.58.112c-.432 0-.65-.26-.65-.783a2.738 2.738 0 0 1 1.311-2.258c.25-.19.513-.36.789-.508a6.51 6.51 0 0 1 2.71-.514 9.41 9.41 0 0 1 5.293 1.526L13.01 5.934l1.622 1.062L16.788 3.9l-.702-.56A11.221 11.221 0 0 0 8.856.85c-4.236 0-7.2 2.603-7.2 6.325v.285a5.222 5.222 0 0 0 1.067 3.438v-.02zm10.953-.971a2.904 2.904 0 0 0-2.223.854 2.872 2.872 0 0 0-.813 2.034 2.459 2.459 0 0 0 .793 1.912c.45.438 1.046.692 1.673.712.245-.01.488-.041.727-.092.19-.06.387-.097.585-.112.432 0 .646.26.646.778 0 .185-.02.37-.061.55-.717 1.759-2.543 2.77-5.227 2.77a10.332 10.332 0 0 1-6.199-2.033l1.47-1.683-1.526-1.18L.903 17.49l.666.595a12.27 12.27 0 0 0 8.207 3.102c.34.009.68-.006 1.017-.046a7.773 7.773 0 0 0 4.76-1.85c1.267-1.143 1.9-2.723 1.9-4.74a5.137 5.137 0 0 0-1.016-3.422 3.37 3.37 0 0 0-2.721-1.231l-.04.006z"/><path fill="#00293F" d="M64.138 16.256h1.2V5.623h-1.2v10.633zm11.971-5.492a2.573 2.573 0 0 0 1.24-.968c.303-.444.46-.971.448-1.508 0-1.632-1.368-2.665-3.463-2.665h-4.53v10.633h4.723c2.33 0 3.86-1.078 3.86-2.914 0-1.49-1.017-2.202-2.278-2.578zm-5.126-4.068h3.26c1.525 0 2.354.682 2.354 1.744 0 1.266-1.017 1.917-2.44 1.917h-3.174V6.696zm3.56 8.477h-3.56v-3.728h3.356c1.856 0 2.827.667 2.827 1.836 0 1.17-1.017 1.902-2.603 1.902l-.02-.01zm-31.436.162c-2.34 0-4.119-1.932-4.119-4.403 0-2.472 1.765-4.378 4.119-4.378a4.632 4.632 0 0 1 3.34 1.459l.814-.88a5.527 5.527 0 0 0-4.154-1.708 5.339 5.339 0 0 0-3.862 1.627 5.353 5.353 0 0 0-1.508 3.911 5.345 5.345 0 0 0 3.261 5.063 5.36 5.36 0 0 0 2.078.418 5.552 5.552 0 0 0 4.277-1.866l-.819-.778c-1.017.97-1.968 1.525-3.427 1.525v.01zm-12.02-4.967c-2.345-.509-2.884-1.063-2.884-2.08 0-1.017.875-1.734 2.258-1.734a4.671 4.671 0 0 1 3.051 1.154l.702-.925a5.545 5.545 0 0 0-3.717-1.307c-2.034 0-3.499 1.22-3.499 2.919 0 1.698 1.13 2.542 3.56 3.081 2.232.473 2.771 1.017 2.771 2.034 0 1.078-.946 1.82-2.375 1.82a5.046 5.046 0 0 1-3.666-1.5l-.727.87a6.25 6.25 0 0 0 4.343 1.713c2.11 0 3.63-1.184 3.63-3.025 0-1.637-1.098-2.502-3.463-3.02h.016zm28.206-1.56c0-1.917-1.526-3.178-3.844-3.178h-4.577v10.632h1.2v-4.134h3.051l3.082 4.13h1.474l-3.26-4.348c1.669-.295 2.879-1.327 2.879-3.102h-.005zm-7.216 2.212V6.733h3.285c1.714 0 2.72.794 2.72 2.11 0 1.318-1.144 2.177-2.74 2.177h-3.265zM86.78 5.623h-3.69v10.633h3.691c3.341 0 5.65-2.324 5.65-5.33 0-3.004-2.299-5.303-5.65-5.303zm0 9.53h-2.486V6.731h2.496c2.685 0 4.404 1.856 4.404 4.225 0 2.37-1.719 4.195-4.404 4.195h-.01z"/></g><defs><clipPath id="a"><path fill="#fff" d="M0 0h91.528v20.345H0z" transform="translate(.903 .848)"/></clipPath></defs></svg>